# xmcd
#
# Track frame offsets: 
#        150
#        19290
#        42258
#        65758
#        138463
#        166283
#        216045
#        238535
#        261185
#        273428
#        304548
#        325080
#
# Disc length: 4584 seconds
#
# Revision: 0
# Processed by: cddbd v1.5.2PL0 Copyright (c) Steve Scherf et al.
# Submitted via: ExactAudioCopy v0.95b3
#
DISCID=ab11e60c
DTITLE=Tyree Glenn jun. Band - Hair Today - Gone Tomorrow
DYEAR=1993
DGENRE=R&B
TTITLE0=I Can't Turn You Loose
TTITLE1=Smash
TTITLE2=Hair Today - Gone Tomorrow
TTITLE3=For "Jake And Elwood Blues"
TTITLE4=Memphis Soul Stew
TTITLE5=Sexmachine
TTITLE6=Business Man's Blues
TTITLE7=Bald Is Best
TTITLE8=I Feel Good
TTITLE9=Party Hardy
TTITLE10=Bad News
TTITLE11=Papa's Got A Brandnew Bag
EXTD=
EXTT0=
EXTT1=
EXTT2=
EXTT3=
EXTT4=
EXTT5=
EXTT6=
EXTT7=
EXTT8=
EXTT9=
EXTT10=
EXTT11=
PLAYORDER=
